<?xml version="1.0" encoding="utf-8"?>
<!-- Generator: Adobe Illustrator 19.0.0, SVG Export Plug-In . SVG Version: 6.00 Build 0)  -->
<svg version="1.1" id="Layer_1" xmlns="http://www.w3.org/2000/svg" xmlns:xlink="http://www.w3.org/1999/xlink" x="0px" y="0px"
	 viewBox="0 0 96 96" style="enable-background:new 0 0 96 96;" xml:space="preserve">
<style type="text/css">
	.st0{fill:#333333;}
</style>
<g id="XMLID_1_">
	<path id="XMLID_3_" class="st0" d="M39.1,53.9c6.5,0,11.8-5.3,11.8-11.8s-5.3-11.8-11.8-11.8s-11.8,5.3-11.8,11.8
		S32.6,53.9,39.1,53.9z"/>
	<path id="XMLID_4_" class="st0" d="M39.1,56.9c-13.9,0-23.6,7.3-23.6,17.7v3h47.3v-3C62.8,64.2,53.1,56.9,39.1,56.9z"/>
	<polygon id="XMLID_5_" class="st0" points="80.5,27.3 71.6,27.3 71.6,18.5 65.7,18.5 65.7,27.3 56.9,27.3 56.9,33.2 65.7,33.2 
		65.7,42.1 71.6,42.1 71.6,33.2 80.5,33.2 	"/>
</g>
</svg>
