<?xml version="1.0" encoding="UTF-8" standalone="no"?>
<svg
   xmlns:dc="http://purl.org/dc/elements/1.1/"
   xmlns:cc="http://creativecommons.org/ns#"
   xmlns:rdf="http://www.w3.org/1999/02/22-rdf-syntax-ns#"
   xmlns:svg="http://www.w3.org/2000/svg"
   xmlns="http://www.w3.org/2000/svg"
   xmlns:sodipodi="http://sodipodi.sourceforge.net/DTD/sodipodi-0.dtd"
   xmlns:inkscape="http://www.inkscape.org/namespaces/inkscape"
   height="24"
   viewBox="0 0 25 24"
   width="25"
   version="1.1"
   id="svg827"
   sodipodi:dostyleame="icon_attention_m_color.bc6db39f46c18965baf13eab94cdfad7.svg"
   inkscape:version="0.92.3 (2405546, 2018-03-11)">
  <metadata
     id="metadata833">
    <rdf:RDF>
      <cc:Work
         rdf:about="">
        <dc:format>image/svg+xml</dc:format>
        <dc:type
           rdf:resource="http://purl.org/dc/dcmitype/StillImage" />
      </cc:Work>
    </rdf:RDF>
  </metadata>
  <defs
     id="defs831" />
  <sodipodi:namedview
     pagecolor="#ffffff"
     bordercolor="#666666"
     borderopacity="1"
     objecttolerance="10"
     gridtolerance="10"
     guidetolerance="10"
     inkscape:pageopacity="0"
     inkscape:pageshadow="2"
     inkscape:window-width="1920"
     inkscape:window-height="1033"
     id="namedview829"
     showgrid="false"
     inkscape:zoom="36"
     inkscape:cx="12.5"
     inkscape:cy="12"
     inkscape:window-x="-4"
     inkscape:window-y="-4"
     inkscape:window-maximized="1"
     inkscape:current-layer="svg827" />
  <path
     d="M23.977 19.502L14.098 2.96a1.5 1.5 0 0 0-2.576 0L1.643 19.5a1.5 1.5 0 0 0 1.288 2.27H22.69a1.5 1.5 0 0 0 1.288-2.27zM14.06 7.77l-.25 7h-2l-.25-7h2.5zm-1.256 12a1.48 1.48 0 0 1-1.494-1.5c0-.85.662-1.5 1.494-1.5.855 0 1.506.65 1.506 1.5 0 .849-.65 1.5-1.506 1.5z"
     fill="#FFCC00"
     id="path825" />
  <path
     style="fill:#000000;stroke:none;stroke-width:0.02777778"
     d="m 11.816678,14.570833 c -0.01424,-0.18107 -0.240641,-6.5379678 -0.23941,-6.7222219 l 5.1e-4,-0.076389 h 1.238957 1.238956 l -0.01789,0.3680556 C 14.023704,8.4303497 13.8,14.645053 13.8,14.746657 c 0,0.01509 -0.403194,0.02556 -0.983741,0.02556 h -0.983741 z"
     id="path835"
     inkscape:connector-curvature="0" />
  <path
     style="fill:#000000;stroke:none;stroke-width:0.02777778"
     d="m 12.619444,19.740646 c -0.728854,-0.06729 -1.291666,-0.707117 -1.291666,-1.468424 0,-0.419219 0.136155,-0.751287 0.428346,-1.044693 0.307887,-0.309166 0.620019,-0.438314 1.057765,-0.437661 0.883906,0.0013 1.551184,0.726578 1.476817,1.605143 -0.07284,0.860522 -0.777789,1.428119 -1.671262,1.345635 z"
     id="path837"
     inkscape:connector-curvature="0" />
</svg>
